<?xml version="1.0" encoding="UTF-8" standalone="no"?>
<!DOCTYPE svg PUBLIC "-//W3C//DTD SVG 1.1//EN"
 "http://www.w3.org/Graphics/SVG/1.1/DTD/svg11.dtd">
<!-- Generated by graphviz version 2.38.0 (20140413.2041)
 -->
<!-- Pages: 1 -->
<svg width="206pt" height="260pt"
 viewBox="0.00 0.00 206.00 260.00" xmlns="http://www.w3.org/2000/svg" xmlns:xlink="http://www.w3.org/1999/xlink">
<g id="graph0" class="graph" transform="scale(1 1) rotate(0) translate(4 256)">
<polygon fill="white" stroke="none" points="-4,4 -4,-256 202,-256 202,4 -4,4"/>
<!-- s -->
<g id="node1" class="node"><title>s</title>
<ellipse fill="none" stroke="Red" cx="99" cy="-234" rx="27" ry="18"/>
<text text-anchor="middle" x="99" y="-230.3" font-family="Times New Roman,serif" font-size="14.00">s</text>
</g>
<!-- b -->
<g id="node2" class="node"><title>b</title>
<ellipse fill="none" stroke="Red" cx="63" cy="-162" rx="27" ry="18"/>
<text text-anchor="middle" x="63" y="-158.3" font-family="Times New Roman,serif" font-size="14.00">b</text>
</g>
<!-- s&#45;&gt;b -->
<g id="edge1" class="edge"><title>s&#45;&gt;b</title>
<path fill="none" stroke="black" d="M90.6504,-216.765C86.2885,-208.283 80.8531,-197.714 75.9587,-188.197"/>
<polygon fill="black" stroke="black" points="78.9904,-186.439 71.3043,-179.147 72.7654,-189.641 78.9904,-186.439"/>
</g>
<!-- a -->
<g id="node3" class="node"><title>a</title>
<ellipse fill="none" stroke="Red" cx="135" cy="-162" rx="27" ry="18"/>
<text text-anchor="middle" x="135" y="-158.3" font-family="Times New Roman,serif" font-size="14.00">a</text>
</g>
<!-- s&#45;&gt;a -->
<g id="edge2" class="edge"><title>s&#45;&gt;a</title>
<path fill="none" stroke="black" d="M107.35,-216.765C111.712,-208.283 117.147,-197.714 122.041,-188.197"/>
<polygon fill="black" stroke="black" points="125.235,-189.641 126.696,-179.147 119.01,-186.439 125.235,-189.641"/>
</g>
<!-- c -->
<g id="node4" class="node"><title>c</title>
<ellipse fill="none" stroke="Red" cx="99" cy="-90" rx="27" ry="18"/>
<text text-anchor="middle" x="99" y="-86.3" font-family="Times New Roman,serif" font-size="14.00">c</text>
</g>
<!-- b&#45;&gt;c -->
<g id="edge3" class="edge"><title>b&#45;&gt;c</title>
<path fill="none" stroke="black" d="M71.3496,-144.765C75.7115,-136.283 81.1469,-125.714 86.0413,-116.197"/>
<polygon fill="black" stroke="black" points="89.2346,-117.641 90.6957,-107.147 83.0096,-114.439 89.2346,-117.641"/>
</g>
<!-- a&#45;&gt;c -->
<g id="edge4" class="edge"><title>a&#45;&gt;c</title>
<path fill="none" stroke="black" d="M126.65,-144.765C122.288,-136.283 116.853,-125.714 111.959,-116.197"/>
<polygon fill="black" stroke="black" points="114.99,-114.439 107.304,-107.147 108.765,-117.641 114.99,-114.439"/>
</g>
<!-- g -->
<g id="node5" class="node"><title>g</title>
<ellipse fill="none" stroke="Red" cx="27" cy="-18" rx="27" ry="18"/>
<text text-anchor="middle" x="27" y="-14.3" font-family="Times New Roman,serif" font-size="14.00">g</text>
</g>
<!-- c&#45;&gt;g -->
<g id="edge5" class="edge"><title>c&#45;&gt;g</title>
<path fill="none" stroke="black" d="M84.4297,-74.8345C74.2501,-64.9376 60.4761,-51.5462 48.9694,-40.3591"/>
<polygon fill="black" stroke="black" points="51.4055,-37.8461 41.7957,-33.3847 46.5259,-42.865 51.4055,-37.8461"/>
</g>
<!-- e -->
<g id="node6" class="node"><title>e</title>
<ellipse fill="none" stroke="Red" cx="99" cy="-18" rx="27" ry="18"/>
<text text-anchor="middle" x="99" y="-14.3" font-family="Times New Roman,serif" font-size="14.00">e</text>
</g>
<!-- c&#45;&gt;e -->
<g id="edge6" class="edge"><title>c&#45;&gt;e</title>
<path fill="none" stroke="black" d="M99,-71.6966C99,-63.9827 99,-54.7125 99,-46.1124"/>
<polygon fill="black" stroke="black" points="102.5,-46.1043 99,-36.1043 95.5001,-46.1044 102.5,-46.1043"/>
</g>
<!-- d -->
<g id="node7" class="node"><title>d</title>
<ellipse fill="none" stroke="Red" cx="171" cy="-18" rx="27" ry="18"/>
<text text-anchor="middle" x="171" y="-14.3" font-family="Times New Roman,serif" font-size="14.00">d</text>
</g>
<!-- c&#45;&gt;d -->
<g id="edge7" class="edge"><title>c&#45;&gt;d</title>
<path fill="none" stroke="black" d="M113.57,-74.8345C123.75,-64.9376 137.524,-51.5462 149.031,-40.3591"/>
<polygon fill="black" stroke="black" points="151.474,-42.865 156.204,-33.3847 146.595,-37.8461 151.474,-42.865"/>
</g>
</g>
</svg>
